<svg xmlns="http://www.w3.org/2000/svg" viewBox="0 0 64 64">
  
  <rect x="0" y="0" width="64" height="64" fill="#fdfcf8"></rect>
  
  <rect x="10" y="12" width="9" height="40" fill="#2a2b80"></rect>
  <path d="M19 12 L32 12 A 13 13 0 0 1 32 38 L19 38 Z" fill="#2a2b80"></path>
  <path d="M19 18 L31 18 A 7 7 0 0 1 31 32 L19 32 Z" fill="#fdfcf8"></path>
  
  <rect x="34" y="24" width="7" height="30" fill="#1a8a5d"></rect>
  <path d="M41 24 L48 24 A 9 9 0 0 1 48 44 L41 44 Z" fill="#1a8a5d"></path>
  <path d="M41 29 L47 29 A 4.6 4.6 0 0 1 47 39 L41 39 Z" fill="#fdfcf8"></path>
</svg>